<?xml version="1.0" standalone="no"?>
<!DOCTYPE svg PUBLIC "-//W3C//DTD SVG 20010904//EN"
 "http://www.w3.org/TR/2001/REC-SVG-20010904/DTD/svg10.dtd">
<svg version="1.0" xmlns="http://www.w3.org/2000/svg"
 width="512.000000pt" height="512.000000pt" viewBox="0 0 512.000000 512.000000"
 preserveAspectRatio="xMidYMid meet">

<g transform="translate(0.000000,512.000000) scale(0.100000,-0.100000)"
fill="#000000" stroke="none">
<path d="M522 4761 c-241 -60 -432 -247 -499 -492 -17 -60 -18 -168 -18 -1709
0 -1541 1 -1649 18 -1709 54 -195 186 -357 362 -441 158 -76 -2 -71 2215 -68
l1985 3 80 31 c185 71 312 189 395 366 62 133 60 47 60 1818 0 1771 2 1685
-60 1818 -83 177 -210 295 -395 366 l-80 31 -1995 2 c-1888 2 -1999 1 -2068
-16z m825 -606 c14 -9 33 -35 44 -58 17 -38 19 -69 19 -323 l0 -282 54 -26
c68 -33 152 -115 190 -185 122 -226 35 -512 -190 -626 l-54 -27 0 -782 0 -782
-22 -44 c-28 -55 -74 -83 -134 -82 -55 1 -102 28 -129 74 -19 32 -20 53 -23
825 l-2 793 -52 26 c-67 34 -157 120 -191 182 -91 166 -68 385 53 519 39 44
115 101 156 118 l33 14 3 293 c3 282 4 294 25 328 48 76 142 95 220 45z m1291
5 c18 -11 41 -34 52 -52 19 -32 20 -52 20 -824 l0 -791 52 -24 c121 -56 226
-200 250 -343 31 -185 -77 -390 -249 -474 l-53 -26 0 -291 c0 -272 -1 -292
-20 -323 -61 -100 -211 -95 -262 8 -16 31 -18 69 -18 320 l0 285 -58 30 c-171
88 -274 288 -243 473 24 141 120 273 243 337 l58 30 0 785 c0 727 1 788 18
820 37 75 138 104 210 60z m1310 -2 c67 -41 72 -67 72 -384 l0 -282 55 -27
c228 -116 313 -414 182 -638 -34 -57 -132 -148 -191 -175 l-46 -22 0 -783 c0
-741 -1 -784 -19 -823 -27 -60 -77 -88 -147 -82 -45 4 -61 10 -89 38 -20 19
-40 50 -45 70 -6 21 -10 331 -10 807 l0 772 -60 32 c-182 97 -277 313 -225
514 31 119 124 234 233 289 l52 26 0 273 c0 152 5 288 10 308 11 38 51 86 85
100 39 15 106 10 143 -13z"/>
</g>
</svg>
